<svg width="2351" height="3352" viewBox="0 0 2351 3352" fill="none" xmlns="http://www.w3.org/2000/svg">
<g filter="url(#filter0_f_243_12)">
<path d="M109.751 3309.57C108.763 3270.07 74.419 3233.37 38.3115 3233.37H33.4715V3191.87V3150.37H37.0137C129.327 3150.37 132.898 2999.48 40.7695 2991.69L33.4715 2991.08V2958.41V2925.73L42.3023 2924.56C130.724 2912.78 132.024 2780.91 43.8598 2766.57L33.4739 2764.87V2728.12V2691.37H37.0161C129.373 2691.37 132.945 2540.49 40.7719 2532.69L33.4739 2532.08V2490.72V2449.37H37.0161C69.1547 2449.37 101.009 2421.09 108.549 2385.87C118.369 2339.97 81.3465 2290.37 37.2901 2290.37H33.4738V2249.01V2207.65L40.2238 2206.97C131.384 2197.73 131.874 2056.4 40.7718 2048.7L33.4738 2048.08V2006.88V1965.67L40.8587 1965.05C131.088 1957.42 131.079 1814.34 40.8477 1806.71L33.4734 1806.09V1769.36V1732.63L36.5984 1732.01C38.3171 1731.66 40.935 1731.38 42.4159 1731.38C57.5417 1731.38 81.8384 1717.31 93.2782 1701.92C130.114 1652.37 102.019 1581.15 42.5129 1573.23L33.4735 1572.03V1531.32V1490.62L35.7235 1490.02C36.961 1489.69 39.5197 1489.41 41.4095 1489.4C57.5903 1489.34 81.209 1475.87 93.1758 1459.89C130.667 1409.83 100.788 1336.99 40.2226 1330.81L33.4726 1330.12V1293.44V1256.75L42.3034 1255.58C131.797 1243.66 130.848 1105.01 41.2225 1097.73L33.4726 1097.1V1055.89V1014.67L39.8025 1014.03C131.871 1004.53 130.561 855.338 38.4075 855.338H33.4695V817.838V780.339H38.8095C130.192 780.339 131.526 630.271 40.2195 621.691L33.4695 621.056V588.347V555.637L40.7194 555.02C132.001 547.251 129.431 396.343 38.0215 396.343H33.4689V363.553V330.764L43.7668 329.13C132.169 315.107 129.935 177.692 41.2056 171.592L33.4427 171.052L33.706 137.953L33.9693 104.843L41.4692 104.218C74.4068 101.473 103.799 72.6607 108.993 38.0251L109.695 33.3442H156.966H204.236L204.899 38.6499C215.849 126.288 340.817 125.001 355.907 37.0939L356.551 33.344H396.81H437.07L438.294 40.5939C452.296 123.502 569.082 125.49 587.652 43.1368L589.862 33.3439H626.16H662.459V35.6839C662.459 45.3625 671.052 65.5185 679.787 76.3273C720.649 126.891 800.165 106.007 813.145 41.3028L814.735 33.3439H850.897H887.06L888.284 40.5938C902.432 124.371 1021.33 125.072 1038.1 41.4781L1039.7 33.3442H1075.86H1112.01L1113.23 40.4692C1127.78 125.318 1248.71 124.698 1263.51 39.6994L1264.61 33.3444H1301.01H1337.4V35.6561C1337.4 50.1009 1351.06 75.2266 1365.32 87.0174C1410.57 124.44 1478.24 98.5522 1488.46 39.9121L1489.56 33.3442H1529.74H1569.91L1571.7 42.094C1584.99 107.03 1666.1 126.869 1705.84 74.9036C1714.04 64.1757 1722.36 44.175 1722.36 35.1841C1722.36 33.4354 1723.96 33.3442 1754.66 33.3442H1786.93L1788.65 41.6958C1803.82 115.362 1899.89 127.696 1931.92 60.0876C1935.17 53.2228 1939.38 39.1709 1939.38 35.1839C1939.38 33.4276 1941.28 33.3442 1979.78 33.3442H2020.17L2020.87 38.0247C2033.99 125.524 2158.8 125.524 2171.92 38.0247L2172.62 33.3438L2204.75 33.3439L2236.89 33.344L2237.07 43.5938C2237.79 85.3032 2271.8 121.243 2310.64 121.328L2317.39 121.343V154.373C2317.39 179.949 2317.11 187.482 2316.14 187.746C2315.45 187.934 2311.96 188.628 2308.39 189.288C2228.19 204.104 2228.62 329.627 2308.92 345.196L2317.38 346.838V384.043V421.247L2313.63 421.891C2260.43 431.029 2231.97 487.661 2255.88 536.84C2267.46 560.648 2285.25 573.655 2314.63 579.802L2317.38 580.377V613.313V646.249L2313.63 646.844C2228.02 660.435 2225.72 788.402 2310.8 804.542L2317.38 805.791V842.959V880.128L2310.78 881.277C2227.41 895.795 2228.13 1028.32 2311.63 1037.93L2317.38 1038.59V1080.35V1122.12L2310.63 1123.29C2227.28 1137.78 2228 1268.06 2311.5 1280.08L2316.88 1280.86L2317.14 1318.37L2317.41 1355.88L2310.58 1356.96C2257.64 1365.29 2229.59 1433.3 2260.19 1479.12C2273.35 1498.84 2297.3 1514.32 2314.62 1514.32H2317.41L2317.14 1556.02L2316.88 1597.71L2309.38 1599.08C2257.56 1608.53 2230.68 1672.89 2259.06 1719.61C2270.71 1738.79 2297.24 1756.32 2314.61 1756.32H2317.38V1793.78V1831.23L2313.63 1831.85C2224.98 1846.41 2225.78 1972.98 2314.63 1989.84L2317.38 1990.36V2031.79V2073.23L2313.63 2073.84C2224.45 2088.5 2225.65 2214.45 2315.13 2231.91L2317.38 2232.35V2273.81V2315.27L2314.63 2315.8C2273.77 2323.55 2247.38 2354.55 2247.38 2394.81C2247.38 2435.11 2273.73 2466.07 2314.63 2473.83L2317.38 2474.35V2515.81V2557.27L2314.63 2557.79C2225.73 2574.66 2224.93 2701.21 2313.63 2715.78L2317.38 2716.4V2753.6V2790.81L2308.92 2792.45C2228.75 2807.99 2228.32 2933.76 2308.39 2948.36C2311.97 2949.02 2315.45 2949.71 2316.14 2949.89C2317.11 2950.16 2317.39 2957.68 2317.39 2983.22V3016.21L2313.64 3016.82C2227.08 3031.04 2225.48 3157.29 2311.64 3174.3L2317.39 3175.44V3212.22V3249L2309.14 3249.69C2272.92 3252.7 2246.2 3277.41 2237.95 3315.54L2237.35 3318.29H2204.89H2172.43L2171.83 3315.54C2163.16 3275.44 2133.84 3249.95 2096.39 3249.95C2058.92 3249.95 2029.64 3275.41 2020.95 3315.54L2020.36 3318.29H1979.84C1948.27 3318.29 1939.26 3318.02 1939.01 3317.04C1938.84 3316.35 1937.94 3312.64 1937.03 3308.79C1918.53 3231.12 1806.08 3231.5 1789.4 3309.29C1788.75 3312.32 1788 3315.58 1787.74 3316.54C1787.12 3318.81 1722.59 3319.3 1722.01 3317.04C1721.84 3316.35 1720.94 3312.64 1720.03 3308.79C1700.52 3226.88 1589.05 3231.93 1570.96 3315.54L1570.36 3318.29H1529.85C1498.3 3318.29 1489.26 3318.01 1488.97 3317.04C1488.77 3316.35 1487.89 3312.64 1487.01 3308.79C1470.59 3236.55 1370.9 3229.28 1343.1 3298.29C1340.73 3304.17 1339.99 3306.67 1337.99 3315.54L1337.37 3318.29H1300.86C1272.51 3318.29 1264.26 3318.01 1263.98 3317.04C1263.78 3316.35 1262.88 3312.64 1262 3308.79C1243.64 3229.21 1129.83 3232.09 1113.44 3312.54L1112.27 3318.29H1075.81C1047.5 3318.29 1039.26 3318.01 1038.98 3317.04C1038.78 3316.35 1037.89 3312.67 1037 3308.85C1018.9 3230.75 902.025 3232.28 888.905 3310.79C887.511 3319.13 891.656 3318.35 850.692 3318.05L814.114 3317.79L812.299 3310.1C793.189 3229.1 680.261 3230.96 663.451 3312.55L662.265 3318.32L625.689 3318.05L589.114 3317.79L587.299 3310.1C568.187 3229.09 455.261 3230.95 438.461 3312.54L437.277 3318.29H396.576H355.876L354.642 3311.79C339.087 3229.79 222.384 3230.38 205.464 3312.54L204.28 3318.29L157.102 3318.28L109.923 3318.27L109.705 3309.53L109.751 3309.57Z" fill="black"/>
</g>
<path d="M103.751 3303.57C102.763 3264.07 68.419 3227.37 32.3115 3227.37H27.4716V3185.87V3144.37H31.0137C123.327 3144.37 126.898 2993.48 34.7696 2985.69L27.4716 2985.08V2952.4V2919.73L36.3023 2918.56C124.724 2906.78 126.024 2774.91 37.8598 2760.57L27.475 2758.87V2722.12V2685.37H31.0171C123.374 2685.37 126.946 2534.49 34.773 2526.69L27.475 2526.08V2484.72V2443.37H31.0171C63.1557 2443.37 95.0102 2415.09 102.55 2379.87C112.37 2333.97 75.3475 2284.37 31.2911 2284.37H27.4749V2243.01V2201.65L34.2248 2200.97C125.386 2191.73 125.875 2050.4 34.7729 2042.7L27.4749 2042.08V2000.88V1959.67L34.8598 1959.05C125.09 1951.42 125.081 1808.34 34.8488 1800.71L27.4745 1800.08V1763.36V1726.63L30.5994 1726C32.3182 1725.66 34.9361 1725.38 36.4169 1725.38C51.5427 1725.38 75.8394 1711.31 87.2792 1695.92C124.115 1646.37 96.0205 1575.15 36.5139 1567.23L27.4746 1566.03V1525.32V1484.62L29.7245 1484.02C30.962 1483.69 33.5208 1483.41 35.4105 1483.4C51.5913 1483.34 75.21 1469.87 87.1768 1453.89C124.668 1403.83 94.7888 1330.99 34.2236 1324.81L27.4737 1324.12V1287.43V1250.75L36.3044 1249.58C125.798 1237.66 124.849 1099.01 35.2236 1091.73L27.4737 1091.1V1049.89V1008.67L33.8035 1008.03C125.875 998.525 124.566 849.337 32.4094 849.337H27.4715V811.838V774.338H32.8114C124.194 774.338 125.528 624.271 34.2214 615.691L27.4715 615.056V582.346V549.637L34.7214 549.02C126.001 541.25 123.435 390.342 32.024 390.342H27.4715V357.553V324.763L37.7693 323.13C126.171 309.1 123.937 171.682 35.2077 165.592L27.4445 165.052L27.7078 131.952L27.9711 98.8428L35.4709 98.2178C68.4085 95.4728 97.8011 66.6602 102.995 32.0247L103.697 27.3438H150.967H198.238L198.901 32.6495C209.85 120.287 334.819 119 349.908 31.0937L350.552 27.3438H390.812H431.071L432.296 34.5936C446.298 117.501 563.084 119.489 581.654 37.1365L583.864 27.3438H620.162H656.461V29.6837C656.461 39.3624 665.054 59.5183 673.788 70.3271C714.651 120.89 794.167 100.007 807.147 35.3026L808.737 27.3438H844.899H881.062L882.286 34.5936C896.434 118.37 1015.33 119.071 1032.1 35.4779L1033.7 27.3438H1069.86H1106.01L1107.23 34.4688C1121.83 119.318 1242.73 118.699 1257.53 33.699L1258.63 27.3438H1295.03H1331.42V29.6554C1331.42 44.1002 1345.08 69.2259 1359.34 81.0167C1404.6 118.439 1472.27 92.5515 1482.49 33.9114L1483.59 27.3438H1523.76H1563.93L1565.72 36.0936C1579.02 101.03 1660.12 120.868 1699.86 68.9032C1708.06 58.1753 1716.38 38.1746 1716.38 29.1837C1716.38 27.435 1717.98 27.3438 1748.68 27.3438H1780.96L1782.67 35.6954C1797.84 109.361 1893.91 121.695 1925.94 54.0872C1929.2 47.2224 1933.41 33.1705 1933.41 29.1835C1933.41 27.4274 1935.31 27.3438 1973.81 27.3438H2014.19L2014.89 32.0245C2028.01 119.524 2152.82 119.524 2165.94 32.0245L2166.64 27.3438L2198.74 27.3439L2230.84 27.344L2231.04 37.5938C2231.76 79.3032 2265.78 115.243 2304.61 115.328L2311.36 115.343V148.373C2311.36 173.949 2311.08 181.482 2310.11 181.746C2309.42 181.934 2305.94 182.628 2302.36 183.288C2222.17 198.104 2222.59 323.626 2302.89 339.196L2311.36 340.838V378.043V415.247L2307.61 415.891C2254.4 425.029 2225.95 481.661 2249.86 530.84C2261.43 554.648 2279.22 567.655 2308.61 573.802L2311.36 574.378V607.313V640.249L2307.61 640.844C2222 654.435 2219.7 782.402 2304.77 798.542L2311.36 799.791V836.959V874.128L2304.75 875.277C2221.38 889.795 2222.11 1022.32 2305.61 1031.93L2311.36 1032.59V1074.35V1116.12L2304.61 1117.29C2221.25 1131.78 2221.97 1262.06 2305.48 1274.08L2310.86 1274.86L2311.12 1312.37L2311.38 1349.88L2304.55 1350.96C2251.61 1359.29 2223.56 1427.3 2254.16 1473.12C2267.32 1492.84 2291.27 1508.32 2308.6 1508.32H2311.38L2311.12 1550.02L2310.86 1591.71L2303.36 1593.08C2251.53 1602.53 2224.65 1666.89 2253.03 1713.61C2264.68 1732.79 2291.21 1750.32 2308.59 1750.32H2311.36V1787.78V1825.23L2307.61 1825.85C2218.95 1840.41 2219.76 1966.98 2308.61 1983.84L2311.36 1984.36V2025.79V2067.23L2307.61 2067.84C2218.42 2082.5 2219.62 2208.45 2309.11 2225.91L2311.36 2226.35V2267.81V2309.27L2308.61 2309.8C2267.74 2317.55 2241.36 2348.55 2241.36 2388.81C2241.36 2429.11 2267.7 2460.07 2308.61 2467.83L2311.36 2468.35V2509.81V2551.27L2308.61 2551.79C2219.71 2568.66 2218.91 2695.21 2307.61 2709.78L2311.36 2710.4V2747.6V2784.8L2302.89 2786.45C2222.72 2801.99 2222.3 2927.76 2302.36 2942.36C2305.94 2943.02 2309.43 2943.7 2310.11 2943.89C2311.08 2944.16 2311.36 2951.68 2311.36 2977.22V3010.21L2307.61 3010.82C2221.06 3025.04 2219.45 3151.29 2305.61 3168.3L2311.36 3169.44V3206.22V3243L2303.11 3243.69C2266.89 3246.7 2240.17 3271.41 2231.92 3309.54L2231.33 3312.29H2198.86H2166.4L2165.81 3309.54C2157.13 3269.44 2127.81 3243.95 2090.37 3243.95C2052.89 3243.95 2023.61 3269.41 2014.92 3309.54L2014.33 3312.29H1973.82C1942.24 3312.29 1933.23 3312.02 1932.99 3311.04C1932.81 3310.35 1931.92 3306.64 1931 3302.79C1912.5 3225.12 1800.05 3225.5 1783.37 3303.29C1782.72 3306.32 1781.98 3309.58 1781.71 3310.54C1781.09 3312.81 1716.56 3313.3 1715.98 3311.04C1715.81 3310.35 1714.91 3306.64 1714 3302.79C1694.49 3220.88 1583.02 3225.93 1564.93 3309.54L1564.33 3312.29H1523.82C1492.28 3312.29 1483.23 3312.01 1482.94 3311.04C1482.74 3310.35 1481.86 3306.64 1480.99 3302.79C1464.57 3230.55 1364.87 3223.28 1337.07 3292.29C1334.7 3298.17 1333.96 3300.67 1331.96 3309.54L1331.34 3312.29H1294.83C1266.48 3312.29 1258.24 3312.01 1257.95 3311.04C1257.75 3310.35 1256.86 3306.64 1255.97 3302.79C1237.61 3223.21 1123.8 3226.09 1107.41 3306.54L1106.24 3312.29H1069.78C1041.47 3312.29 1033.24 3312.01 1032.95 3311.04C1032.75 3310.35 1031.86 3306.67 1030.98 3302.85C1012.87 3224.75 895.997 3226.28 882.877 3304.79C881.484 3313.13 885.628 3312.35 844.664 3312.05L808.086 3311.79L806.272 3304.1C787.162 3223.1 674.233 3224.96 657.424 3306.55L656.237 3312.32L619.661 3312.05L583.086 3311.79L581.271 3304.1C562.159 3223.09 449.233 3224.95 432.433 3306.54L431.249 3312.29H390.549H349.848L348.614 3305.79C333.06 3223.79 216.356 3224.38 199.437 3306.54L198.252 3312.29L151.074 3312.28L103.896 3312.27L103.677 3303.53L103.751 3303.57Z" fill="#F2F2F2"/>
<defs>
<filter id="filter0_f_243_12" x="5.59684" y="5.49784" width="2339.66" height="3340.85" filterUnits="userSpaceOnUse" color-interpolation-filters="sRGB">
<feFlood flood-opacity="0" result="BackgroundImageFix"/>
<feBlend mode="normal" in="SourceGraphic" in2="BackgroundImageFix" result="shape"/>
<feGaussianBlur stdDeviation="13.923" result="effect1_foregroundBlur_243_12"/>
</filter>
</defs>
</svg>
