<svg width="228" height="414" viewBox="0 0 228 414" fill="none" xmlns="http://www.w3.org/2000/svg">
<path d="M29 6.5H198C208.77 6.5 217.5 15.2304 217.5 26V83.5H9.5V26C9.5 15.2304 18.2304 6.5 29 6.5Z" fill="#9ADFF5" stroke="#254D5A"/>
<rect x="13" y="36" width="200" height="48" fill="url(#paint0_linear_243_19)"/>
<path d="M20 22C20 10.9543 28.9543 2 40 2H187C198.046 2 207 10.9543 207 22V90H20V22Z" fill="#6CD4F5"/>
<path d="M42 8.5H185C193.56 8.5 200.5 15.4396 200.5 24V91.5H26.5V24C26.5 15.4396 33.4396 8.5 42 8.5Z" fill="#62C0DE" stroke="#4DADCC"/>
<rect x="9" y="22" width="214" height="62" fill="url(#paint1_linear_243_19)"/>
<path d="M16 36C17.6569 36 19 37.3431 19 39L18.5 78.5C18.5 80.7091 20.2909 82.5 22.5 82.5H204.5C206.709 82.5 208.5 80.7091 208.5 78.5V39C208.5 37.3431 209.843 36 211.5 36H222C223.657 36 225 37.3431 225 39V351C225 384.137 198.137 411 165 411H62C28.8629 411 2.00003 384.137 2 351V39C2 37.3431 3.34315 36 5 36H16ZM64.4521 126L64.4199 126.212C64.1848 127.78 62.8544 129.085 61.3633 129.209L61.0234 129.237L61.0117 130.736L61 132.234L61.3516 132.259C65.3684 132.535 65.4695 138.755 61.4678 139.391L61.001 139.465V142.434H61.207C65.3455 142.434 65.4616 149.266 61.3291 149.618L61.001 149.646V152.607L61.3066 152.636C65.4403 153.024 65.3801 159.818 61.2432 159.818H61.001V163.214H61.2246C65.3968 163.214 65.4563 169.968 61.2881 170.398L61.001 170.428V174.159L61.3525 174.188C65.4097 174.517 65.4526 180.794 61.4014 181.334L61.001 181.388V184.709L61.3066 184.74C64.0486 185.02 65.4014 188.318 63.7041 190.584C63.1623 191.307 62.0929 191.917 61.3604 191.92C61.275 191.92 61.1596 191.932 61.1035 191.947L61.001 191.975V195.66L61.4102 195.715C64.1042 196.073 65.3766 199.298 63.709 201.541C63.1911 202.238 62.091 202.875 61.4062 202.875C61.3392 202.875 61.2204 202.888 61.1426 202.903L61.001 202.932V206.257L61.335 206.285C65.4199 206.631 65.4207 213.109 61.3359 213.454L61.001 213.481V217.213L61.332 217.241C65.4562 217.59 65.4336 223.988 61.3066 224.406L61.001 224.437V228.182H61.1738C63.1684 228.182 64.845 230.428 64.4004 232.506C64.059 234.1 62.6169 235.38 61.1621 235.38H61.001V239.125L61.332 239.152C65.5046 239.506 65.3429 246.336 61.1621 246.336H61.001V249.664L61.4717 249.741C65.4628 250.391 65.4041 256.36 61.4014 256.894L61.001 256.946V259.905L61.332 259.933C65.5026 260.286 65.3403 267.117 61.1611 267.117H61.001V270.874H61.2207C62.8553 270.874 64.4103 272.536 64.4551 274.324L64.4512 274.322L64.4609 274.718L66.5967 274.719H68.7334L68.7861 274.459C69.5521 270.739 74.8358 270.713 75.54 274.425L75.5957 274.719H79.2812L79.335 274.459C80.0955 270.765 85.2078 270.681 86.0732 274.348L86.1553 274.696L87.8115 274.708L89.4668 274.72L89.5205 274.459C90.2815 270.765 95.3944 270.681 96.2598 274.348L96.3418 274.696L97.998 274.708C99.8524 274.721 99.6644 274.757 99.7275 274.379C100.322 270.825 105.613 270.756 106.433 274.291C106.473 274.464 106.513 274.631 106.522 274.662C106.535 274.706 106.908 274.719 108.189 274.719H109.84L109.894 274.459C110.636 270.817 115.788 270.686 116.619 274.289C116.659 274.463 116.699 274.63 116.708 274.662C116.721 274.706 117.095 274.719 118.378 274.719H120.031L120.06 274.595C120.15 274.193 120.183 274.08 120.29 273.813C121.549 270.689 126.062 271.019 126.806 274.289C126.845 274.463 126.885 274.631 126.895 274.662C126.907 274.706 127.317 274.719 128.745 274.719H130.579L130.606 274.595C131.425 270.809 136.472 270.581 137.355 274.289C137.397 274.463 137.437 274.631 137.445 274.662C137.471 274.764 140.393 274.742 140.421 274.64C140.433 274.596 140.467 274.448 140.496 274.312C141.251 270.79 146.342 270.773 147.18 274.289C147.221 274.463 147.262 274.631 147.27 274.662C147.281 274.706 147.689 274.719 149.118 274.719H150.952L150.979 274.595C151.372 272.778 152.698 271.625 154.395 271.625C156.09 271.625 157.417 272.78 157.81 274.595L157.837 274.719H160.776L160.803 274.595C161.176 272.868 162.386 271.749 164.026 271.613L164.399 271.582V268.251L164.139 268.2C160.238 267.43 160.311 261.714 164.229 261.07L164.399 261.043V259.549C164.399 258.393 164.387 258.052 164.343 258.04C164.311 258.031 164.154 258.001 163.992 257.972C160.367 257.31 160.386 251.616 164.016 250.912L164.399 250.838V247.47L164.229 247.441C160.214 246.782 160.25 241.053 164.274 240.289L164.399 240.266V236.511L164.274 236.487C162.423 236.136 161.23 234.735 161.23 232.91C161.231 231.088 162.425 229.684 164.274 229.333L164.399 229.31V225.556L164.297 225.535C160.246 224.744 160.192 219.042 164.229 218.379L164.399 218.352V214.6L164.274 214.576C160.252 213.813 160.216 208.083 164.229 207.424L164.399 207.396V204.004H164.273C163.487 204.004 162.286 203.21 161.759 202.342C160.474 200.227 161.691 197.313 164.037 196.885L164.377 196.823L164.4 193.048H164.274C163.49 193.048 162.406 192.347 161.81 191.455C160.424 189.38 161.694 186.301 164.091 185.924L164.4 185.875L164.377 182.479L164.133 182.443C160.353 181.899 160.32 176 164.094 175.345L164.399 175.292V171.51L164.139 171.48C160.358 171.045 160.326 165.046 164.101 164.389L164.399 164.336V160.971L164.101 160.914C160.249 160.183 160.354 154.39 164.229 153.774L164.399 153.748V150.766L164.274 150.739C162.944 150.461 162.139 149.872 161.615 148.795C160.533 146.568 161.821 144.005 164.229 143.591L164.399 143.562V140.192L164.016 140.118C160.381 139.413 160.362 133.731 163.992 133.061C164.154 133.031 164.312 132.999 164.343 132.99C164.387 132.978 164.399 132.637 164.399 131.479V129.984L164.094 129.983C162.336 129.98 160.795 128.352 160.763 126.464L160.754 126H157.848L157.815 126.212C157.221 130.173 151.572 130.173 150.978 126.212L150.945 126H149.117C147.376 126 147.288 126.004 147.288 126.083C147.288 126.264 147.097 126.9 146.95 127.211C145.5 130.271 141.15 129.713 140.464 126.378L140.387 126H138.925C137.537 126 137.463 126.004 137.463 126.083C137.463 126.49 137.086 127.396 136.715 127.882C134.916 130.234 131.245 129.336 130.643 126.396L130.561 126H126.924L126.874 126.297C126.411 128.952 123.348 130.124 121.299 128.43C120.653 127.896 120.035 126.758 120.035 126.104V126H116.739L116.689 126.288C116.019 130.136 110.546 130.163 109.885 126.322L109.83 126H106.557L106.483 126.368C105.724 130.153 100.342 130.121 99.7012 126.328L99.6455 126H96.3711L96.2998 126.36C95.7122 129.29 92.1117 130.235 90.2617 127.946C89.8663 127.457 89.4775 126.544 89.4775 126.105V126H86.1904L86.0908 126.443C85.2501 130.172 79.963 130.082 79.3291 126.328L79.2734 126H75.6279L75.5986 126.17C74.9153 130.149 69.2585 130.208 68.7627 126.24L68.7324 126H64.4521Z" fill="#F8EFE2"/>
<path d="M218.5 278.5V347C218.5 377.1 194.1 401.5 164 401.5H63C32.9005 401.5 8.5 377.1 8.5 347V278.5H218.5Z" fill="url(#paint2_linear_243_19)" stroke="url(#paint3_linear_243_19)"/>
<defs>
<linearGradient id="paint0_linear_243_19" x1="113" y1="36" x2="113" y2="84" gradientUnits="userSpaceOnUse">
<stop stop-color="#153640" stop-opacity="0"/>
<stop offset="1" stop-color="#1A404C"/>
</linearGradient>
<linearGradient id="paint1_linear_243_19" x1="116" y1="22" x2="116" y2="84" gradientUnits="userSpaceOnUse">
<stop stop-color="#153640" stop-opacity="0"/>
<stop offset="1" stop-color="#1A404C" stop-opacity="0.5"/>
</linearGradient>
<linearGradient id="paint2_linear_243_19" x1="113.5" y1="278" x2="113.5" y2="402" gradientUnits="userSpaceOnUse">
<stop stop-color="#EBE1D3" stop-opacity="0"/>
<stop offset="1" stop-color="#858078" stop-opacity="0.15"/>
</linearGradient>
<linearGradient id="paint3_linear_243_19" x1="113.5" y1="278" x2="113.5" y2="402" gradientUnits="userSpaceOnUse">
<stop offset="0.149038" stop-opacity="0"/>
<stop offset="1" stop-color="#969696" stop-opacity="0.5"/>
</linearGradient>
</defs>
</svg>
